<?xml version="1.0" encoding="UTF-8" standalone="no"?>
<!DOCTYPE svg PUBLIC "-//W3C//DTD SVG 1.1//EN" "http://www.w3.org/Graphics/SVG/1.1/DTD/svg11.dtd">
<svg version="1.1" xmlns="http://www.w3.org/2000/svg" xmlns:xlink="http://www.w3.org/1999/xlink" preserveAspectRatio="xMidYMid meet" viewBox="0 0 640 640" width="640" height="640"><defs><path d="M201.66 294.06C201.58 294.19 201.53 294.27 201.51 294.3C194.7 304.51 197.48 318.32 207.72 325.1C208.58 325.67 210.73 327.1 214.16 329.38C214.28 330.09 214.35 330.54 214.38 330.72C217.85 352.8 236.88 369.06 259.23 369.06C260.72 369.06 264.45 369.06 270.41 369.06C274.63 373.28 277.27 375.92 278.33 376.98C290.26 388.91 308.7 391.38 323.36 383.01C324.42 382.4 327.09 380.87 331.35 378.44C336.08 379.57 339.03 380.28 340.21 380.56C357.56 384.73 375.33 375.54 381.95 358.98C382.08 358.65 382.4 357.85 382.91 356.56C388.77 355.26 392.42 354.45 393.89 354.12C403.91 351.9 411.04 343.01 411.04 332.74C411.04 330.92 411.04 326.36 411.04 319.06C412.97 318.29 414.18 317.81 414.66 317.61C429.45 311.7 435.89 294.3 428.53 280.18C427.86 278.91 426.2 275.72 423.54 270.62C426.42 266.55 428.22 264 428.94 262.98C436.53 252.23 434.77 237.48 424.87 228.82C423.86 227.93 421.33 225.72 417.29 222.19C417.29 219.25 417.29 217.42 417.29 216.68C417.29 203.39 408.24 191.8 395.35 188.58C394.94 188.47 393.92 188.22 392.29 187.81C392.29 183.55 392.29 180.89 392.29 179.82C392.29 167 379.55 158.07 367.49 162.45C366.22 162.92 363.02 164.08 357.91 165.94C356.03 162.63 354.85 160.57 354.37 159.74C349.41 151.05 338.38 147.97 329.63 152.83C327.98 153.75 323.87 156.03 317.29 159.69C315.16 157.91 313.83 156.8 313.29 156.36C305.11 149.54 292.97 150.56 286.04 158.65C285.21 159.62 283.12 162.05 279.79 165.94C275.6 162.68 272.99 160.65 271.94 159.84C262.79 152.71 249.35 157.96 247.44 169.4C247.17 171.03 246.49 175.08 245.41 181.56C241.15 181.56 238.49 181.56 237.42 181.56C224.58 181.56 214.16 191.98 214.16 204.82C214.16 205.89 214.16 208.55 214.16 212.81C209.63 214.17 206.8 215.02 205.67 215.36C194.96 218.57 191.1 231.74 198.37 240.22C198.81 240.73 199.91 242.01 201.66 244.06C197.92 250.31 195.58 254.21 194.64 255.77C187.75 267.26 189.56 281.96 199.03 291.43C199.38 291.78 200.26 292.66 201.66 294.06Z" id="a6MnOjXBw"></path><path d="M312.06 202.02C312.06 205.93 308.89 209.1 304.98 209.1C301.08 209.1 297.9 205.93 297.9 202.02C297.9 198.12 301.08 194.95 304.98 194.95C308.89 194.95 312.06 198.12 312.06 202.02Z" id="d1n7m16TpJ"></path><path d="M270.67 229.81C270.67 233.72 267.49 236.89 263.59 236.89C259.68 236.89 256.51 233.72 256.51 229.81C256.51 225.91 259.68 222.74 263.59 222.74C267.49 222.74 270.67 225.91 270.67 229.81Z" id="c9Fp1U7ms"></path><path d="M327.23 349.98C327.43 346.08 330.76 343.07 334.66 343.27C338.56 343.48 341.57 346.81 341.36 350.71C341.16 354.61 337.83 357.61 333.93 357.41C330.03 357.21 327.02 353.88 327.23 349.98Z" id="a5DnI1B8U"></path><path d="M337.99 222.74C337.99 226.64 334.82 229.81 330.91 229.81C327.01 229.81 323.83 226.64 323.83 222.74C323.83 218.83 327.01 215.66 330.91 215.66C334.82 215.66 337.99 218.83 337.99 222.74Z" id="b9pyw9sPD"></path><path d="M370 319.63C370.21 315.73 373.54 312.73 377.44 312.93C381.34 313.13 384.34 316.46 384.14 320.37C383.94 324.27 380.61 327.27 376.71 327.07C372.81 326.87 369.8 323.54 370 319.63Z" id="e3EBXCPkS0"></path><path d="M260.85 335.4C261.05 331.5 264.38 328.49 268.28 328.7C272.18 328.9 275.19 332.23 274.98 336.13C274.78 340.03 271.45 343.04 267.55 342.83C263.65 342.63 260.64 339.3 260.85 335.4Z" id="d6cIy34THx"></path><path d="M348.46 310.76C348.66 314.66 352 317.67 355.9 317.46C359.8 317.26 362.8 313.93 362.6 310.03C362.4 306.13 359.07 303.12 355.16 303.33C351.26 303.53 348.26 306.86 348.46 310.76Z" id="bVf9WVhDu"></path><path d="M355.53 202.02C355.53 205.93 352.36 209.1 348.45 209.1C344.55 209.1 341.37 205.93 341.37 202.02C341.37 198.12 344.55 194.95 348.45 194.95C352.36 194.95 355.53 198.12 355.53 202.02Z" id="bE0uIJ7jV"></path></defs><g><g><g><use xlink:href="#a6MnOjXBw" opacity="1" fill="#79663d" fill-opacity="1"></use><g><use xlink:href="#a6MnOjXBw" opacity="1" fill-opacity="0" stroke="#000000" stroke-width="17" stroke-opacity="1"></use></g></g><g><use xlink:href="#d1n7m16TpJ" opacity="1" fill="#af9d76" fill-opacity="1"></use></g><g><use xlink:href="#c9Fp1U7ms" opacity="1" fill="#af9d76" fill-opacity="1"></use></g><g><use xlink:href="#a5DnI1B8U" opacity="1" fill="#61563f" fill-opacity="1"></use></g><g><use xlink:href="#b9pyw9sPD" opacity="1" fill="#af9d76" fill-opacity="1"></use></g><g><use xlink:href="#e3EBXCPkS0" opacity="1" fill="#615743" fill-opacity="1"></use></g><g><use xlink:href="#d6cIy34THx" opacity="1" fill="#615742" fill-opacity="1"></use></g><g><use xlink:href="#bVf9WVhDu" opacity="1" fill="#615742" fill-opacity="1"></use></g><g><use xlink:href="#bE0uIJ7jV" opacity="1" fill="#af9d76" fill-opacity="1"></use></g></g></g></svg>